# Blender 4.2.3 LTS
# www.blender.org
mtllib schematic_table_block.mtl
o base_model
v 1.750000 0.812500 0.750000
v 1.750000 0.812500 0.937500
v 1.750000 0.000000 0.750000
v 1.750000 0.000000 0.937500
v 1.937500 0.812500 0.750000
v 1.937500 0.812500 0.937500
v 1.937500 0.000000 0.750000
v 1.937500 0.000000 0.937500
v 1.750000 0.812500 0.062500
v 1.750000 0.812500 0.250000
v 1.750000 0.000000 0.062500
v 1.750000 0.000000 0.250000
v 1.937500 0.812500 0.062500
v 1.937500 0.812500 0.250000
v 1.937500 0.000000 0.062500
v 1.937500 0.000000 0.250000
v 1.750000 1.000000 0.250000
v 1.937500 1.000000 0.250000
v 1.750000 1.000000 0.062500
v 1.937500 1.000000 0.062500
v 0.062500 0.812500 0.062500
v 0.062500 0.812500 0.250000
v 0.062500 0.000000 0.062500
v 0.062500 0.000000 0.250000
v 0.250000 0.812500 0.062500
v 0.250000 0.812500 0.250000
v 0.250000 0.000000 0.062500
v 0.250000 0.000000 0.250000
v 0.062500 1.000000 0.250000
v 0.250000 1.000000 0.250000
v 0.062500 1.000000 0.062500
v 0.250000 1.000000 0.062500
v 0.062500 0.812500 0.750000
v 0.062500 0.812500 0.937500
v 0.062500 0.000000 0.750000
v 0.062500 0.000000 0.937500
v 0.250000 0.812500 0.750000
v 0.250000 0.812500 0.937500
v 0.250000 0.000000 0.750000
v 0.250000 0.000000 0.937500
v -0.000000 1.060521 0.065566
v 0.000000 0.801702 1.031492
v -0.000000 0.879410 0.017037
v 0.000000 0.620590 0.982963
v 2.000000 1.060521 0.065566
v 2.000000 0.801702 1.031492
v 2.000000 0.879410 0.017037
v 2.000000 0.620590 0.982963
v 0.000000 0.817878 0.971121
v 2.000000 0.817878 0.971121
v 0.000000 0.862072 1.047668
v 2.000000 0.862072 1.047668
v 0.000000 0.878248 0.987298
v 2.000000 0.878248 0.987297
v 0.250000 0.500000 0.062500
v 0.250000 0.500000 0.250000
v 0.250000 0.312500 0.062500
v 0.250000 0.312500 0.250000
v 1.750000 0.500000 0.062500
v 1.750000 0.500000 0.250000
v 1.750000 0.312500 0.062500
v 1.750000 0.312500 0.250000
v 0.423453 0.625000 0.412056
v 0.585215 0.625000 1.015760
v 0.423453 0.000000 0.412056
v 0.585215 -0.000000 1.015760
v 1.027157 0.625000 0.250294
v 1.188919 0.625000 0.853998
v 1.027157 0.000000 0.250294
v 1.188919 0.000000 0.853998
v -0.000000 1.137510 0.021868
v -0.000000 1.121333 0.082238
v -0.000000 1.016769 -0.010485
v -0.000000 1.000593 0.049886
v 2.000000 1.137510 0.021867
v 2.000000 1.121333 0.082238
v 2.000000 1.016769 -0.010485
v 2.000000 1.000593 0.049885
v 0.437500 1.099670 0.018199
v 0.437500 0.840851 0.984125
v 0.437500 1.039299 0.002023
v 0.437500 0.780480 0.967948
v 1.437500 1.099670 0.018199
v 1.437500 0.840851 0.984124
v 1.437500 1.039299 0.002022
v 1.437500 0.780480 0.967948
v 0.125000 0.818320 0.971617
v 0.125000 0.878691 0.987793
v 0.437500 0.818320 0.971617
v 0.437500 0.878691 0.987793
v 0.125000 0.834496 0.911247
v 0.125000 0.894867 0.927423
v 0.437500 0.834496 0.911247
v 0.437500 0.894867 0.927423
v 0.500000 0.856593 0.949520
v 1.937500 0.818320 0.971617
v 1.937500 0.878691 0.987793
v 1.625000 0.818320 0.971617
v 1.625000 0.878691 0.987793
v 1.937500 0.834496 0.911247
v 1.937500 0.894867 0.927423
v 1.625000 0.834496 0.911247
v 1.625000 0.894867 0.927423
v 1.562500 0.856593 0.949520
v 0.378601 0.838719 0.895488
v 0.378601 0.899089 0.911664
v 0.680453 0.817786 0.973613
v 0.680453 0.878156 0.989789
v 0.394777 0.854344 0.837174
v 0.394777 0.914714 0.853350
v 0.696629 0.833411 0.915299
v 0.696629 0.893781 0.931475
v 0.748911 0.851596 0.968169
v 0.362500 1.180590 -0.034611
v 0.362500 1.051180 0.448352
v 0.362500 1.120219 -0.050787
v 0.362500 0.990810 0.432176
v 0.425000 1.180590 -0.034611
v 0.425000 1.051180 0.448352
v 0.425000 1.120219 -0.050787
v 0.425000 0.990810 0.432176
v 0.262500 1.180590 -0.034611
v 0.262500 1.051180 0.448352
v 0.262500 1.120219 -0.050787
v 0.262500 0.990810 0.432176
v 0.325000 1.180590 -0.034611
v 0.325000 1.051180 0.448352
v 0.325000 1.120219 -0.050787
v 0.325000 0.990810 0.432176
v 0.267704 1.029108 0.554875
v 0.452355 1.037535 0.523425
v 0.267704 0.968738 0.538698
v 0.452355 0.977164 0.507249
v 0.235145 1.076899 0.376515
v 0.419796 1.085326 0.345065
v 0.235145 1.016529 0.360339
v 0.419796 1.024956 0.328889
v 0.340494 1.055959 0.430516
v 0.832898 1.078431 0.346651
v 0.340494 0.995589 0.414340
v 0.832898 1.018060 0.330475
v 0.329641 1.071889 0.371063
v 0.822045 1.094361 0.287198
v 0.329641 1.011519 0.354887
v 0.822045 1.033991 0.271021
v 0.357859 1.030470 0.525642
v 0.850263 1.052942 0.441776
v 0.357859 0.970100 0.509465
v 0.850263 0.992572 0.425600
v 0.347006 1.046401 0.466188
v 0.839410 1.068872 0.382323
v 0.347006 0.986030 0.450012
v 0.839410 1.008502 0.366147
v 1.128929 1.132246 0.169957
v 0.928058 1.070288 0.401189
v 1.128929 1.071876 0.153781
v 0.928058 1.009917 0.385013
v 1.224684 1.111450 0.247568
v 1.023813 1.049492 0.478800
v 1.224684 1.051080 0.231392
v 1.023813 0.989122 0.462624
v 0.928058 1.070288 0.401189
v 0.847709 1.045504 0.493682
v 0.928058 1.009917 0.385013
v 0.847709 0.985134 0.477506
v 1.358958 0.976707 0.750437
v 1.278609 0.951924 0.842930
v 1.358958 0.916337 0.734261
v 1.278609 0.891553 0.826753
v 0.824598 1.113873 0.238527
v 0.704076 1.076698 0.377266
v 0.824598 1.053503 0.222351
v 0.704076 1.016328 0.361090
v 0.968232 1.082679 0.354943
v 0.847709 1.045504 0.493682
v 0.968232 1.022309 0.338767
v 0.847709 0.985134 0.477506
vn -1.0000 -0.0000 -0.0000
vn 1.0000 -0.0000 -0.0000
vn -0.0000 1.0000 -0.0000
vn -0.0000 -1.0000 -0.0000
vn -0.0000 -0.0000 -1.0000
vn -0.0000 -0.0000 1.0000
vn -0.0000 -0.9659 -0.2588
vn -0.0000 0.2588 -0.9659
vn -0.0000 -0.2588 0.9659
vn -0.0000 0.9659 0.2588
vn -0.9659 -0.0000 0.2588
vn 0.9659 -0.0000 -0.2588
vn -0.2588 -0.0000 -0.9659
vn 0.2588 -0.0000 0.9659
vn 0.4472 -0.2315 0.8639
vn 0.4472 -0.8639 -0.2315
vn 0.4472 0.2315 -0.8640
vn 0.4472 0.8640 0.2315
vn -0.4472 -0.2315 0.8640
vn -0.4472 -0.8640 -0.2315
vn -0.4472 0.2315 -0.8639
vn -0.4472 0.8640 0.2315
vn -0.2588 -0.2500 0.9330
vn 0.2588 0.2500 -0.9330
vn -0.9659 0.0670 -0.2500
vn 0.2005 -0.2536 0.9463
vn 0.4320 -0.8939 -0.1197
vn 0.6635 0.1936 -0.7227
vn 0.4320 0.8340 0.3433
vn 0.1736 -0.2549 0.9513
vn -0.1736 0.2549 -0.9513
vn -0.9848 -0.0449 0.1677
vn 0.9848 0.0449 -0.1677
vn -0.7660 0.1664 -0.6209
vn 0.7660 -0.1664 0.6209
vn 0.6428 0.1983 -0.7399
vn -0.6428 -0.1983 0.7399
vt 0.750000 0.666667
vt 0.750000 0.937500
vt 0.687500 0.937500
vt 0.687500 0.666667
vt 0.750000 1.000000
vt 0.687500 1.000000
vt 0.750000 0.875000
vt 0.687500 0.875000
vt 0.583333 0.041667
vt 0.583333 0.104167
vt 0.250000 0.104167
vt 0.250000 0.041667
vt 0.395833 0.041667
vt 0.395833 0.104167
vt 0.062500 0.104167
vt 0.062500 0.041667
vt 0.666667 0.666667
vt 0.666667 1.000000
vt 0.000000 1.000000
vt 0.000000 0.666667
vt 0.666667 0.041667
vt 0.666667 0.104167
vt 0.000000 0.104167
vt 0.000000 0.041667
vt 0.666667 0.687500
vt 0.000000 0.687500
vt 0.666667 0.979167
vt 0.000000 0.979167
vt 0.354167 1.000000
vt 0.333333 1.000000
vt 0.333333 0.979167
vt 0.354167 0.979167
vt 0.020833 1.000000
vt 0.020833 0.979167
vt 0.000000 0.166667
vt 0.666667 0.166667
vt 0.666667 0.145833
vt 0.000000 0.145833
vt 0.145833 0.125000
vt 0.145833 0.187500
vt 0.083333 0.187500
vt 0.083333 0.125000
vt 0.583333 0.125000
vt 0.583333 0.187500
vt 0.895833 0.104167
vt 0.895833 0.312500
vt 0.687500 0.312500
vt 0.687500 0.104167
vt 0.666667 0.333333
vt 0.666667 0.541667
vt 0.458333 0.541667
vt 0.458333 0.333333
vt 0.020833 0.187500
vt 0.020833 0.229167
vt 0.000000 0.229167
vt 0.000000 0.187500
vt 0.666667 0.208333
vt 0.666667 0.229167
vt 0.000000 0.208333
vt 0.687500 0.187500
vt 0.687500 0.208333
vt 0.020833 0.208333
vt 0.666667 0.187500
vt 0.687500 0.333333
vt 0.979167 0.666667
vt 1.000000 0.666667
vt 1.000000 0.333333
vt 0.979167 0.333333
vt 1.000000 0.645833
vt 0.666667 0.645833
vt 1.000000 0.354167
vt 0.666667 0.354167
vt 0.833333 0.770833
vt 0.937500 0.770833
vt 0.937500 0.791667
vt 0.833333 0.791667
vt 0.916667 0.770833
vt 0.916667 0.791667
vt 0.812500 0.770833
vt 0.812500 0.791667
vt 0.937500 0.833333
vt 0.937500 0.854167
vt 0.770833 0.854167
vt 0.770833 0.833333
vt 0.791667 0.833333
vt 0.791667 0.854167
vt 0.916667 0.854167
vt 0.916667 0.833333
vt 0.354167 0.583333
vt 0.354167 0.604167
vt 0.416667 0.604167
vt 0.416667 0.583333
vt 0.416667 0.625000
vt 0.416667 0.645833
vt 0.354167 0.645833
vt 0.354167 0.625000
vt 0.395833 0.583333
vt 0.395833 0.645833
vt 0.375000 0.645833
vt 0.375000 0.583333
vt 0.770833 0.708333
vt 0.791667 0.708333
vt 0.791667 0.812500
vt 0.770833 0.812500
vt 0.812500 0.708333
vt 0.812500 0.812500
vt 0.770833 0.791667
vt 0.770833 0.666667
vt 0.791667 0.666667
vt 0.937500 0.708333
vt 0.958333 0.708333
vt 0.958333 0.666667
vt 0.937500 0.666667
vt 0.958333 0.687500
vt 0.770833 0.687500
s 0
usemtl m_c7deacf5-878b-46da-d1fa-bb208a08039e
f 4/1/1 2/2/1 1/3/1 3/4/1
f 7/1/2 5/2/2 6/3/2 8/4/2
f 1/2/3 2/5/3 6/6/3 5/3/3
f 4/2/4 3/5/4 7/6/4 8/3/4
f 3/1/5 1/2/5 5/3/5 7/4/5
f 8/1/6 6/2/6 2/3/6 4/4/6
f 12/1/1 10/2/1 9/3/1 11/4/1
f 15/1/2 13/2/2 14/3/2 16/4/2
f 19/2/3 17/5/3 18/6/3 20/3/3
f 12/2/4 11/5/4 15/6/4 16/3/4
f 11/1/5 9/2/5 13/3/5 15/4/5
f 16/1/6 14/2/6 10/3/6 12/4/6
f 17/7/1 19/8/1 9/3/1 10/2/1
f 18/7/6 17/8/6 10/3/6 14/2/6
f 20/7/2 18/8/2 14/3/2 13/2/2
f 19/7/5 20/8/5 13/3/5 9/2/5
f 24/1/1 22/2/1 21/3/1 23/4/1
f 27/1/2 25/2/2 26/3/2 28/4/2
f 31/2/3 29/5/3 30/6/3 32/3/3
f 24/2/4 23/5/4 27/6/4 28/3/4
f 23/1/5 21/2/5 25/3/5 27/4/5
f 28/1/6 26/2/6 22/3/6 24/4/6
f 29/7/1 31/8/1 21/3/1 22/2/1
f 30/7/6 29/8/6 22/3/6 26/2/6
f 32/7/2 30/8/2 26/3/2 25/2/2
f 31/7/5 32/8/5 25/3/5 21/2/5
f 36/1/1 34/2/1 33/3/1 35/4/1
f 39/1/2 37/2/2 38/3/2 40/4/2
f 33/2/3 34/5/3 38/6/3 37/3/3
f 36/2/4 35/5/4 39/6/4 40/3/4
f 35/1/5 33/2/5 37/3/5 39/4/5
f 40/1/6 38/2/6 34/3/6 36/4/6
f 44/9/1 42/10/1 41/11/1 43/12/1
f 47/13/2 45/14/2 46/15/2 48/16/2
f 44/17/7 43/18/7 47/19/7 48/20/7
f 43/21/8 41/22/8 45/23/8 47/24/8
f 48/21/9 46/22/9 42/23/9 44/24/9
f 53/17/10 51/25/10 52/26/10 54/20/10
f 45/20/10 41/17/10 49/27/10 50/28/10
f 51/29/1 53/30/1 49/31/1 42/32/1
f 52/18/9 51/19/9 42/28/9 46/27/9
f 54/33/2 52/19/2 46/28/2 50/34/2
f 53/35/8 54/36/8 50/37/8 49/38/8
f 58/39/1 56/40/1 55/41/1 57/42/1
f 61/39/2 59/40/2 60/41/2 62/42/2
f 55/43/3 56/44/3 60/41/3 59/42/3
f 58/43/4 57/44/4 61/41/4 62/42/4
f 57/43/5 55/44/5 59/41/5 61/42/5
f 62/43/6 60/44/6 56/41/6 58/42/6
f 66/45/11 64/46/11 63/47/11 65/48/11
f 69/45/12 67/46/12 68/47/12 70/48/12
f 63/45/3 64/46/3 68/47/3 67/48/3
f 66/45/4 65/46/4 69/47/4 70/48/4
f 65/45/13 63/46/13 67/47/13 69/48/13
f 70/49/14 68/50/14 64/51/14 66/52/14
f 74/53/1 72/54/1 71/55/1 73/56/1
f 77/53/2 75/54/2 76/55/2 78/56/2
f 71/57/10 72/58/10 76/55/10 75/59/10
f 74/60/7 73/61/7 77/62/7 78/53/7
f 73/63/8 71/58/8 75/55/8 77/56/8
f 78/56/9 76/55/9 72/58/9 74/63/9
f 82/49/1 80/64/1 79/4/1 81/17/1
f 85/65/2 83/66/2 84/67/2 86/68/2
f 79/17/10 80/49/10 84/67/10 83/66/10
f 82/67/7 81/66/7 85/17/7 86/49/7
f 81/69/8 79/66/8 83/17/8 85/70/8
f 86/67/9 84/71/9 80/72/9 82/49/9
f 90/73/9 88/74/9 87/75/9 89/76/9
f 93/73/8 91/74/8 92/75/8 94/76/8
f 87/77/1 88/74/1 92/75/1 91/78/1
f 89/73/7 87/74/7 91/75/7 93/76/7
f 94/73/10 92/74/10 88/75/10 90/76/10
f 95/79/15 90/76/15 89/80/15
f 95/79/16 89/76/16 93/80/16
f 95/79/17 93/76/17 94/80/17
f 95/73/18 94/76/18 90/80/18
f 96/75/9 97/74/9 99/73/9 98/76/9
f 101/75/8 100/74/8 102/73/8 103/76/8
f 101/75/2 97/74/2 96/77/2 100/78/2
f 100/75/7 96/74/7 98/73/7 102/76/7
f 97/75/10 101/74/10 103/73/10 99/76/10
f 99/76/19 104/79/19 98/80/19
f 98/76/20 104/79/20 102/80/20
f 102/76/21 104/79/21 103/80/21
f 103/76/22 104/73/22 99/80/22
f 108/73/23 106/74/23 105/75/23 107/76/23
f 111/73/24 109/74/24 110/75/24 112/76/24
f 105/77/25 106/74/25 110/75/25 109/78/25
f 107/73/7 105/74/7 109/75/7 111/76/7
f 112/73/10 110/74/10 106/75/10 108/76/10
f 113/79/26 108/76/26 107/80/26
f 113/79/27 107/76/27 111/80/27
f 113/79/28 111/76/28 112/80/28
f 113/73/29 112/76/29 108/80/29
f 117/81/1 115/82/1 114/83/1 116/84/1
f 120/84/2 118/83/2 119/82/2 121/81/2
f 114/84/10 115/81/10 119/82/10 118/83/10
f 117/81/7 116/84/7 120/83/7 121/82/7
f 116/85/8 114/86/8 118/83/8 120/84/8
f 121/81/9 119/82/9 115/87/9 117/88/9
f 125/81/1 123/82/1 122/83/1 124/84/1
f 128/84/2 126/83/2 127/82/2 129/81/2
f 122/84/10 123/81/10 127/82/10 126/83/10
f 125/81/7 124/84/7 128/83/7 129/82/7
f 124/85/8 122/86/8 126/83/8 128/84/8
f 129/81/9 127/82/9 123/87/9 125/88/9
f 133/89/30 131/90/30 130/91/30 132/92/30
f 136/93/31 134/94/31 135/95/31 137/96/31
f 130/92/10 131/94/10 135/95/10 134/89/10
f 133/94/7 132/92/7 136/89/7 137/95/7
f 132/97/32 130/92/32 134/94/32 136/98/32
f 137/95/33 135/99/33 131/100/33 133/89/33
f 141/81/30 139/82/30 138/83/30 140/84/30
f 144/84/31 142/83/31 143/82/31 145/81/31
f 138/84/10 139/81/10 143/82/10 142/83/10
f 141/81/7 140/84/7 144/83/7 145/82/7
f 140/85/32 138/86/32 142/83/32 144/84/32
f 145/81/33 143/82/33 139/87/33 141/88/33
f 149/81/30 147/82/30 146/83/30 148/84/30
f 152/84/31 150/83/31 151/82/31 153/81/31
f 146/84/10 147/81/10 151/82/10 150/83/10
f 149/81/7 148/84/7 152/83/7 153/82/7
f 148/85/32 146/86/32 150/83/32 152/84/32
f 153/81/33 151/82/33 147/87/33 149/88/33
f 157/101/34 155/102/34 154/103/34 156/104/34
f 160/102/35 158/105/35 159/106/35 161/103/35
f 154/101/10 155/104/10 159/106/10 158/105/10
f 157/101/7 156/104/7 160/106/7 161/105/7
f 156/107/36 154/104/36 158/106/36 160/80/36
f 165/108/34 163/109/34 162/102/34 164/101/34
f 168/110/35 166/111/35 167/112/35 169/113/35
f 162/111/10 163/112/10 167/108/10 166/101/10
f 165/108/7 164/101/7 168/111/7 169/112/7
f 164/114/36 162/111/36 166/101/36 168/115/36
f 169/112/37 167/114/37 163/115/37 165/108/37
f 173/89/34 171/90/34 170/91/34 172/92/34
f 176/93/35 174/94/35 175/95/35 177/96/35
f 170/92/10 171/94/10 175/95/10 174/89/10
f 173/94/7 172/92/7 176/89/7 177/95/7
f 172/97/36 170/92/36 174/94/36 176/98/36
f 177/95/37 175/99/37 171/100/37 173/89/37
o scroll_1
v 1.250000 0.187500 1.000000
v 1.250000 -0.000000 1.000000
v 1.250000 0.187500 0.312500
v 1.250000 0.000000 0.312500
v 1.437500 0.187500 1.000000
v 1.437500 -0.000000 1.000000
v 1.437500 0.187500 0.312500
v 1.437500 0.000000 0.312500
vn -1.0000 -0.0000 -0.0000
vn 1.0000 -0.0000 -0.0000
vn -0.0000 -0.0000 1.0000
vn -0.0000 -0.0000 -1.0000
vn -0.0000 1.0000 -0.0000
vn -0.0000 -1.0000 -0.0000
vt 0.333333 0.250000
vt 0.562500 0.250000
vt 0.562500 0.312500
vt 0.333333 0.312500
vt 0.312500 0.250000
vt 0.312500 0.312500
vt 0.250000 0.312500
vt 0.250000 0.250000
s 0
usemtl m_c7deacf5-878b-46da-d1fa-bb208a08039e
f 181/116/38 179/117/38 178/118/38 180/119/38
f 184/116/39 182/117/39 183/118/39 185/119/39
f 178/120/40 179/121/40 183/122/40 182/123/40
f 181/120/41 180/121/41 184/122/41 185/123/41
f 180/116/42 178/117/42 182/118/42 184/119/42
f 185/116/43 183/117/43 179/118/43 181/119/43
o scroll_2
v 1.440080 0.187500 0.934884
v 1.440080 0.000000 0.934884
v 1.500000 0.187500 0.250000
v 1.500000 0.000000 0.250000
v 1.626867 0.187500 0.951226
v 1.626867 0.000000 0.951226
v 1.686786 0.187500 0.266342
v 1.686786 0.000000 0.266342
vn -0.9962 -0.0000 -0.0872
vn 0.9962 -0.0000 0.0872
vn -0.0872 -0.0000 0.9962
vn 0.0872 -0.0000 -0.9962
vn -0.0000 1.0000 -0.0000
vn -0.0000 -1.0000 -0.0000
vt 0.333333 0.250000
vt 0.562500 0.250000
vt 0.562500 0.312500
vt 0.333333 0.312500
vt 0.312500 0.250000
vt 0.312500 0.312500
vt 0.250000 0.312500
vt 0.250000 0.250000
s 0
usemtl m_c7deacf5-878b-46da-d1fa-bb208a08039e
f 189/124/44 187/125/44 186/126/44 188/127/44
f 192/124/45 190/125/45 191/126/45 193/127/45
f 186/128/46 187/129/46 191/130/46 190/131/46
f 189/128/47 188/129/47 192/130/47 193/131/47
f 188/124/48 186/125/48 190/126/48 192/127/48
f 193/124/49 191/125/49 187/126/49 189/127/49
o scroll_3
v 1.312500 0.375000 1.000000
v 1.312500 0.187500 1.000000
v 1.312500 0.375000 0.312500
v 1.312500 0.187500 0.312500
v 1.500000 0.375000 1.000000
v 1.500000 0.187500 1.000000
v 1.500000 0.375000 0.312500
v 1.500000 0.187500 0.312500
vn -1.0000 -0.0000 -0.0000
vn 1.0000 -0.0000 -0.0000
vn -0.0000 -0.0000 1.0000
vn -0.0000 -0.0000 -1.0000
vn -0.0000 1.0000 -0.0000
vn -0.0000 -1.0000 -0.0000
vt 0.333333 0.250000
vt 0.562500 0.250000
vt 0.562500 0.312500
vt 0.333333 0.312500
vt 0.312500 0.250000
vt 0.312500 0.312500
vt 0.250000 0.312500
vt 0.250000 0.250000
s 0
usemtl m_c7deacf5-878b-46da-d1fa-bb208a08039e
f 197/132/50 195/133/50 194/134/50 196/135/50
f 200/132/51 198/133/51 199/134/51 201/135/51
f 194/136/52 195/137/52 199/138/52 198/139/52
f 197/136/53 196/137/53 200/138/53 201/139/53
f 196/132/54 194/133/54 198/134/54 200/135/54
f 201/132/55 199/133/55 195/134/55 197/135/55
